Coordinates
version=1
nRows=14
nColumns=24
inDegrees=yes

Units are S.I. units (second, meters, Newtons, ...)
Angles are in degrees.

endheader
time	pelvis_tilt	pelvis_list	pelvis_rotation	pelvis_tx	pelvis_ty	pelvis_tz	hip_flexion_r	hip_adduction_r	hip_rotation_r	knee_angle_r	ankle_angle_r	subtalar_angle_r	mtp_angle_r	hip_flexion_l	hip_adduction_l	hip_rotation_l	knee_angle_l	ankle_angle_l	subtalar_angle_l	mtp_angle_l	lumbar_extension	lumbar_bending	lumbar_rotation
      2.14000000	      9.44219138	      1.19439299	      5.63321247	      0.50013285	      1.01520237	      0.07706109	     -2.62338173	      1.27668562	    -23.20618642	    -14.17164711	      0.97718873	      7.92153321	     13.24417592	      1.13463802	     -7.34211366	    -11.42260373	    -48.13334270	     -4.55017948	    -10.94066351	     18.53838588	    -14.06803150	     -5.90758206	    -26.04881247
      2.14500000	      9.48053907	      1.18198090	      5.35111141	      0.50644617	      1.01595566	      0.07755794	     -3.24839294	      1.37641222	    -23.08387809	    -13.77584304	      1.09007738	      8.23781189	     13.14153934	      1.54956450	     -7.24182668	    -11.71745480	    -47.35374524	     -4.13873927	    -10.74443916	     18.59739491	    -14.05139593	     -5.96629143	    -25.84193994
      2.15000000	      9.51967163	      1.16475031	      5.07418425	      0.51274428	      1.01663878	      0.07804250	     -3.87126130	      1.47557014	    -22.94504065	    -13.38419799	      1.20757627	      8.55583960	     13.03522073	      1.95933193	     -7.14404605	    -12.00368544	    -46.54122408	     -3.77849143	    -10.55408894	     18.65096568	    -14.03689850	     -6.01775324	    -25.62547445
      2.15500000	      9.55904719	      1.14514803	      4.79611977	      0.51903885	      1.01726167	      0.07852450	     -4.48855082	      1.57107210	    -22.80201524	    -13.00316207	      1.32177685	      8.86880205	     12.92456526	      2.36003737	     -7.04934849	    -12.30217161	    -45.69478105	     -3.46860381	    -10.38849226	     18.69648288	    -14.02261271	     -6.06879848	    -25.40883751
      2.16000000	      9.59900296	      1.11962166	      4.51358869	      0.52531907	      1.01780761	      0.07900903	     -5.09832919	      1.66643762	    -22.65231111	    -12.63629649	      1.44404440	      9.18098488	     12.79680278	      2.75470458	     -6.96247075	    -12.61350707	    -44.82458249	     -3.20889835	    -10.24380905	     18.73436032	    -14.01098746	     -6.11329576	    -25.17412340
      2.16500000	      9.62608566	      1.08821090	      4.22831319	      0.53159317	      1.01827806	      0.07949301	     -5.68795213	      1.76017545	    -22.49530702	    -12.27994821	      1.56526999	      9.47627183	     12.65855242	      3.15670765	     -6.88115894	    -12.93788892	    -43.92806753	     -2.99795879	    -10.13430411	     18.76272687	    -13.98451482	     -6.15639867	    -24.94578454
      2.17000000	      9.65494538	      1.04248569	      3.97413961	      0.53785869	      1.01866533	      0.07991244	     -6.27217341	      1.85959181	    -22.39297283	    -11.96839354	      1.94336315	     10.01231480	     10.64310677	      3.56313468	     -6.81209679	    -13.22929191	    -43.02605327	     -2.79630096	    -10.05458658	     18.83024804	    -13.96338658	     -6.17492868	    -24.73025518
      2.17500000	      9.69353479	      1.01085186	      3.67153186	      0.54411349	      1.01900600	      0.08043102	     -6.86034994	      1.94583189	    -22.16531247	    -11.63235184	      2.06308593	     10.17361609	     10.63164067	      3.93462135	     -6.74019402	    -13.61019176	    -42.08249562	     -2.70172057	    -10.00951301	     18.82936931	    -13.95429516	     -6.22715232	    -24.50494751
      2.18000000	      9.72422507	      0.96375640	      3.37875133	      0.55035798	      1.01924827	      0.08092003	     -7.43141550	      2.03830711	    -21.96655641	    -11.31429290	      2.18102676	     10.40444068	     10.60226017	      4.31678332	     -6.68533184	    -13.98747388	    -41.13633382	     -2.60653043	     -9.96821880	     18.82646054	    -13.93658822	     -6.25826651	    -24.25766719
      2.18500000	      9.75445117	      0.91341398	      3.08471771	      0.55660177	      1.01942097	      0.08140590	     -7.99600842	      2.12773629	    -21.76874017	    -11.00973256	      2.30491561	     10.63638521	     10.56059671	      4.69365279	     -6.63563870	    -14.38007162	    -40.17664315	     -2.54669792	     -9.94728139	     18.81431399	    -13.91947163	     -6.28728193	    -24.01179622
      2.19000000	      9.77814108	      0.85519731	      2.80280954	      0.56282164	      1.01950497	      0.08186336	     -8.55091903	      2.22114247	    -21.54147731	    -10.70406173	      2.43642070	     10.85941517	     10.52383490	      5.08069405	     -6.59194040	    -14.75811529	    -39.21225920	     -2.51945889	     -9.93457322	     18.79566828	    -13.90122557	     -6.30800353	    -23.79905026
      2.19500000	      9.81038350	      0.79454851	      2.50830405	      0.56904672	      1.01953447	      0.08233267	     -9.10119953	      2.30739450	    -21.33383582	    -10.43352257	      2.57797880	     11.07078629	     10.47220716	      5.44574995	     -6.55888893	    -15.18762109	    -38.23088893	     -2.52368356	     -9.92436720	     18.76780120	    -13.89228225	     -6.32424050	    -23.53812101
      2.20000000	      9.82518648	      0.73086177	      2.21531231	      0.57526843	      1.01947305	      0.08279179	     -9.62520697	      2.38980416	    -21.11673770	    -10.17869416	      2.73031364	     11.26325205	     10.40426082	      5.82639339	     -6.52881298	    -15.62645816	    -37.24275051	     -2.55160681	     -9.91161158	     18.73120991	    -13.86265934	     -6.34048302	    -23.29114075
      2.20500000	      9.85035187	      0.66278482	      1.92184619	      0.58147686	      1.01935290	      0.08323921	    -10.15332841	      2.47050614	    -20.88834714	     -9.93779385	      2.89290577	     11.44599733	     10.32164164	      6.19026662	     -6.50488319	    -16.08169599	    -36.24491538	     -2.60024911	     -9.88693922	     18.68573774	    -13.84928091	     -6.35119601	    -23.04236797
